<?xml version="1.0" standalone="no"?>
<!DOCTYPE svg PUBLIC "-//W3C//DTD SVG 20010904//EN"
 "http://www.w3.org/TR/2001/REC-SVG-20010904/DTD/svg10.dtd">
<svg version="1.0" xmlns="http://www.w3.org/2000/svg"
 width="100.000000pt" height="100.000000pt" viewBox="0 0 100.000000 100.000000"
 preserveAspectRatio="xMidYMid meet">

<g transform="translate(0.000000,100.000000) scale(0.100000,-0.100000)"
fill="#000000" stroke="none">
<path d="M283 794 c-3 -8 -3 -43 1 -76 5 -55 4 -59 -12 -53 -9 5 -46 10 -81
13 l-63 4 7 -33 c15 -71 62 -118 130 -131 28 -5 29 -29 4 -88 -17 -40 -27 -51
-43 -49 -49 3 -69 -3 -97 -30 -32 -33 -37 -67 -14 -110 30 -58 124 -66 166
-13 18 23 20 35 15 84 -3 31 -2 59 3 62 10 6 21 -51 21 -111 0 -77 -11 -73
211 -73 158 0 207 3 237 16 42 17 132 104 132 127 0 9 -25 41 -55 71 -41 42
-65 58 -101 67 l-46 12 8 111 c5 61 9 134 9 161 l0 50 -213 3 c-187 2 -213 0
-219 -14z m41 -25 c15 -78 0 -183 -18 -121 -4 15 -10 127 -7 145 3 19 19 4 25
-24z m336 9 c0 -13 -3 -40 -6 -60 -6 -36 -8 -38 -45 -38 -28 0 -39 4 -39 15 0
21 -101 20 -162 -2 -26 -9 -51 -14 -54 -10 -4 4 -9 32 -12 62 l-4 55 161 0
c160 0 161 0 161 -22z m40 -17 c0 -52 -39 -533 -45 -549 -3 -8 -28 -12 -75
-12 l-72 0 24 29 c13 17 33 30 44 30 12 1 31 9 43 18 20 17 22 36 37 248 8
127 17 240 20 253 7 36 24 25 24 -17z m-153 -96 c-12 -75 -87 -135 -167 -135
-22 0 -40 -2 -40 -4 0 -22 44 -137 56 -147 9 -7 33 -12 55 -10 77 5 116 -76
65 -135 -63 -74 -183 9 -137 94 7 13 0 37 -25 87 -18 39 -34 62 -34 52 0 -10
-11 -40 -25 -68 -23 -45 -25 -53 -13 -85 10 -30 10 -39 -3 -62 -22 -40 -62
-56 -104 -42 -41 13 -55 35 -55 84 0 48 39 78 94 74 38 -2 41 -1 63 42 12 25
27 74 32 108 20 127 77 176 210 181 33 1 34 0 28 -34z m-269 -25 c32 -20 33
-23 27 -63 -4 -23 -9 -44 -11 -46 -2 -2 -18 -1 -37 3 -39 7 -93 59 -102 99 -7
27 -7 27 41 27 32 0 61 -7 82 -20z m369 -37 c-4 -32 -9 -110 -13 -173 -7 -129
-14 -150 -49 -150 -18 0 -26 8 -35 35 -15 45 -49 68 -100 67 -37 -1 -42 3 -59
36 -10 20 -21 49 -24 63 -6 24 -4 27 46 38 64 14 121 58 138 106 12 33 16 35
57 35 l45 0 -6 -57z m126 -154 c31 -16 107 -98 107 -116 0 -28 -94 -111 -139
-123 -24 -6 -48 -9 -55 -7 -8 3 -9 38 -2 131 l9 126 29 0 c16 0 39 -5 51 -11z
m-419 -136 c1 -51 5 -66 25 -87 l24 -26 -30 0 -31 0 -7 98 c-4 53 -9 106 -11
117 -3 12 2 8 12 -10 11 -19 18 -53 18 -92z"/>
</g>
</svg>
